{"title":"OSU_VS_Eastern_Michigan_1st_Quarter_9-25-2010","uid":5854208,"size":1925435030,"categoryP":"video","categoryS":"tv_shows","magnet":"?xt=urn:btih:576fe57d45d666fc6620017a94efe69b70cf234f&amp;dn=OSU_VS_Eastern_Michigan_1st_Quarter_9-25-2010&amp;tr=udp%3A%2F%2Ftracker.openbittorrent.com%3A80&amp;tr=udp%3A%2F%2Fopen.demonii.com%3A1337&amp;tr=udp%3A%2F%2Ftracker.coppersurfer.tk%3A6969&amp;tr=udp%3A%2F%2Fexodus.desync.com%3A6969","seeders":0,"leechers":0,"uploader":"thetorrentlord","files":10,"time":1285535723,"description":"From a HD source compressed with SUPER and includes the \n\nColumbus Dispatch for the week. Questions, comments, \n\ncomplaints, suggestions always welcome. Enjoy and please \n\nshare. GO BUCKS!!!!! BEAT ILLINOIS!!!!!!                       \n\n                                                               \n\n                                                               \n\n                                                               \n\nOSU_Eastern_Michigan_1st_Quarter_2010-09-25.avi\nFormat                           : AVI\nFormat/Info                      : Audio Video Interleave\nFormat profile                   : OpenDML\nFile size                        : 1.30 GiB\nDuration                         : 41mn 23s\nOverall bit rate                 : 4 495 Kbps\nMovie name                       : \n\nOSU_Eastern_Michigan_1st_Quarter_2010-09-25.mpg\nDirector                         : \n\ncreated.with.SUPER(C).v2009.bld.35\nWriting application              : SUPER(C)   \n\nVideo\nID                               : 0\nFormat                           : MPEG-4 Visual\nFormat profile                   : Simple@L3\nFormat settings, BVOP            : No\nFormat settings, QPel            : No\nFormat settings, GMC             : No warppoints\nFormat settings, Matrix          : Default (H.263)\nCodec ID                         : XVID\nCodec ID/Hint                    : XviD\nDuration                         : 41mn 23s\nBit rate                         : 4 370 Kbps\nWidth                            : 1 280 pixels\nHeight                           : 720 pixels\nDisplay aspect ratio             : 16:9\nFrame rate                       : 29.970 fps\nResolution                       : 8 bits\nColorimetry                      : 4:2:0\nScan type                        : Progressive\nBits/(Pixel*Frame)               : 0.158\nStream size                      : 1.26 GiB (97%)\nWriting library                  : XviD 1.1.2 (UTC 2006-11-01)\n\nAudio\nID                               : 1\nFormat                           : MPEG Audio\nFormat version                   : Version 1\nFormat profile                   : Layer 3\nMode                             : Joint stereo\nFormat_Settings_ModeExtension    : MS Stereo\nCodec ID                         : 55\nCodec ID/Hint                    : MP3\nDuration                         : 41mn 23s\nBit rate mode                    : Constant\nBit rate                         : 112 Kbps\nChannel(s)                       : 2 channels\nSampling rate                    : 32.0 KHz\nStream size                      : 33.2 MiB (2%)\nAlignment                        : Aligned on interleaves\nInterleave, duration             : 36 ms (1.08 video frame)\nInterleave, preload duration     : 36 ms\n\n","torrent":{"xt":"urn:btih:576fe57d45d666fc6620017a94efe69b70cf234f","amp;dn":"OSU_VS_Eastern_Michigan_1st_Quarter_9-25-2010","amp;tr":["udp%3A%2F%2Ftracker.openbittorrent.com%3A80","udp%3A%2F%2Fopen.demonii.com%3A1337","udp%3A%2F%2Ftracker.coppersurfer.tk%3A6969","udp%3A%2F%2Fexodus.desync.com%3A6969"],"infoHash":"576fe57d45d666fc6620017a94efe69b70cf234f","infoHashBuffer":{"type":"Buffer","data":[87,111,229,125,69,214,102,252,102,32,1,122,148,239,230,155,112,207,35,79]},"announce":[],"urlList":[]}}